<svg width="150" height="150" viewBox="0 0 150 150" fill="none" xmlns="http://www.w3.org/2000/svg">
<path d="M110.156 39.8438C104.986 39.8438 100.781 44.0484 100.781 49.2188C100.781 54.3891 104.986 58.5938 110.156 58.5938C115.327 58.5938 119.531 54.3891 119.531 49.2188C119.531 44.0484 115.327 39.8438 110.156 39.8438ZM110.156 53.9062C107.571 53.9062 105.469 51.8039 105.469 49.2188C105.469 46.6336 107.571 44.5312 110.156 44.5312C112.741 44.5312 114.844 46.6336 114.844 49.2188C114.844 51.8039 112.741 53.9062 110.156 53.9062ZM128.937 84.0469C134.7 80.2134 139.426 75.0134 142.692 68.9103C145.958 62.8073 147.664 55.9909 147.656 49.0688C147.656 31.0219 136.418 15.3234 119.531 9.42422V9.375C119.531 5.49844 116.377 2.34375 112.5 2.34375H107.812C106.363 2.3484 104.951 2.80143 103.769 3.64069C102.587 4.47994 101.694 5.6643 101.212 7.03125H90.1406C88.8264 5.55813 87.2159 4.37911 85.4146 3.57134C83.6133 2.76356 81.6617 2.34524 79.6875 2.34375C71.932 2.34375 65.625 8.65078 65.625 16.4062C65.625 22.4414 69.4547 27.5859 74.8055 29.5758C73.275 31.118 71.8148 33.0211 70.4836 35.1562H44.4703C42.3281 32.3273 38.9672 30.4688 35.1562 30.4688C31.3453 30.4688 27.982 32.3273 25.8422 35.1562H9.375C5.49844 35.1562 2.34375 38.3109 2.34375 42.1875V70.3125C2.34375 74.1891 5.49844 77.3438 9.375 77.3438H36.5297L44.2477 85.0617C44.7718 85.5888 45.3953 86.0066 46.0821 86.291C46.7688 86.5754 47.5051 86.7208 48.2484 86.7188C49.7484 86.7169 51.1864 86.1202 52.2471 85.0596C53.3077 83.9989 53.9044 82.5609 53.9062 81.0609V77.3438H74.0742C74.2219 77.5055 74.3578 77.6742 74.5148 77.8289C74.6109 77.925 74.7141 78.007 74.8125 78.0984C73.5188 78.9328 72.6562 80.3812 72.6562 82.0312C72.6562 87.2016 76.8609 91.4062 82.0312 91.4062H100.781V96.8812C89.5078 101.812 82.0312 113.098 82.0312 125.494V147.656H147.656V110.156C147.656 102.684 141.795 96.5719 134.43 96.1359L126.562 90.2344V85.6289L128.937 84.0469ZM110.156 63.2812C102.401 63.2812 96.0938 56.9742 96.0938 49.2188C96.0938 41.4633 102.401 35.1562 110.156 35.1562C117.912 35.1562 124.219 41.4633 124.219 49.2188C124.219 56.9742 117.912 63.2812 110.156 63.2812ZM77.8289 74.5148C76.9294 73.6199 76.2163 72.5555 75.7307 71.3832C75.2451 70.2109 74.9968 68.954 75 67.6852V56.9039L68.0625 54.5906C69.0422 45.4008 77.4563 30.4688 82.0312 30.4688H100.781V33.0047C95.1867 36.2531 91.4062 42.2953 91.4062 49.2188C91.4062 57.0703 96.2625 63.7992 103.125 66.5883V77.3438H84.6586C82.0805 77.3438 79.6523 76.3383 77.8289 74.5148ZM107.812 7.03125H112.5C113.791 7.03125 114.844 8.08359 114.844 9.375V31.0852C113.341 30.6961 111.778 30.4688 110.156 30.4688C108.534 30.4688 106.971 30.6961 105.469 31.0852V9.375C105.469 8.08359 106.521 7.03125 107.812 7.03125ZM70.3125 16.4062C70.3125 11.2359 74.5172 7.03125 79.6875 7.03125C84.8578 7.03125 89.0625 11.2359 89.0625 16.4062H93.75C93.75 14.7609 93.45 13.1883 92.9297 11.7188H100.781V25.7812H79.6875C74.5172 25.7812 70.3125 21.5766 70.3125 16.4062ZM35.1562 35.1562C39.0328 35.1562 42.1875 38.3109 42.1875 42.1875C42.1875 46.0641 39.0328 49.2188 35.1562 49.2188C31.2797 49.2188 28.125 46.0641 28.125 42.1875C28.125 38.3109 31.2797 35.1562 35.1562 35.1562ZM7.03125 70.3125V42.1875C7.03125 40.8961 8.08359 39.8438 9.375 39.8438H23.6742C23.2776 41.7919 23.3856 43.809 23.9877 45.7037C24.5899 47.5984 25.6663 49.3078 27.1148 50.6695C18.1477 53.9602 11.7188 62.5594 11.7188 72.6562H9.375C8.08359 72.6562 7.03125 71.6039 7.03125 70.3125ZM49.2188 72.6562V81.0609C49.2188 81.8531 48.1195 82.3078 47.5617 81.7477L38.4703 72.6562H16.4062C16.4062 62.318 24.818 53.9062 35.1562 53.9062C45.4945 53.9062 53.9062 62.318 53.9062 72.6562H49.2188ZM58.5938 72.6562C58.5938 62.5594 52.1648 53.9602 43.1977 50.6695C44.6462 49.3078 45.7226 47.5984 46.3248 45.7037C46.9269 43.809 47.0349 41.7919 46.6383 39.8438H67.9102C65.0906 45.6773 63.2812 52.05 63.2812 56.25V57.9398L70.3125 60.2836V67.6852C70.3125 69.4102 70.6312 71.0836 71.2102 72.6562H58.5938ZM82.0312 86.7188C79.4461 86.7188 77.3438 84.6164 77.3438 82.0312H103.125C105.71 82.0312 107.812 79.9289 107.812 77.3438V67.807C108.581 67.9031 109.362 67.9688 110.156 67.9688C110.951 67.9688 111.731 67.9031 112.5 67.807V79.6875C112.5 83.5641 109.345 86.7188 105.469 86.7188H82.0312ZM142.969 110.156V142.969H124.219V110.156C124.219 104.986 128.423 100.781 133.594 100.781C138.764 100.781 142.969 104.986 142.969 110.156ZM128.072 97.2258C125.54 98.3098 123.381 100.113 121.863 102.411C120.345 104.709 119.534 107.402 119.531 110.156V142.969H86.7188V125.494C86.7188 114.628 93.4688 104.749 103.561 100.781H118.16L124.441 94.5L128.072 97.2258ZM126.338 80.1469L121.875 83.1211V90.4359L116.217 96.0938H105.469V91.4062C111.93 91.4062 117.188 86.1492 117.188 79.6875V66.5883C124.05 63.7992 128.906 57.0703 128.906 49.2188C128.906 42.2977 125.126 36.2531 119.531 33.0047V14.3953C133.673 20.032 142.969 33.5883 142.969 49.0688C142.969 61.5844 136.751 73.2023 126.338 80.1469ZM9.375 133.594H45.9047L53.6227 141.312C54.1468 141.839 54.7703 142.257 55.4571 142.541C56.1438 142.825 56.8801 142.971 57.6234 142.969C59.1234 142.967 60.5614 142.37 61.6221 141.31C62.6827 140.249 63.2794 138.811 63.2812 137.311V133.594H65.625C69.5016 133.594 72.6562 130.439 72.6562 126.562V98.4375C72.6562 94.5609 69.5016 91.4062 65.625 91.4062H9.375C5.49844 91.4062 2.34375 94.5609 2.34375 98.4375V126.562C2.34375 130.439 5.49844 133.594 9.375 133.594ZM7.03125 98.4375C7.03125 97.1461 8.08359 96.0938 9.375 96.0938H65.625C66.9164 96.0938 67.9688 97.1461 67.9688 98.4375V126.562C67.9688 127.854 66.9164 128.906 65.625 128.906H58.5938V137.311C58.5938 138.103 57.4945 138.555 56.9367 137.998L47.8453 128.906H9.375C8.08359 128.906 7.03125 127.854 7.03125 126.562V98.4375ZM16.4062 105.469H11.7188V100.781H16.4062V105.469ZM63.2812 105.469H21.0938V100.781H63.2812V105.469ZM63.2812 114.844H11.7188V110.156H63.2812V114.844ZM63.2812 124.219H11.7188V119.531H63.2812V124.219Z" fill="url(#paint0_linear_373_41)"/>
<defs>
<linearGradient id="paint0_linear_373_41" x1="75" y1="147.656" x2="75" y2="2.34375" gradientUnits="userSpaceOnUse">
<stop stop-color="#DDE3E9"/>
<stop offset="0.363426" stop-color="#33363F"/>
</linearGradient>
</defs>
</svg>
