<?xml version="1.0" encoding="UTF-8" standalone="yes"?>
<svg xmlns="http://www.w3.org/2000/svg" xmlns:xlink="http://www.w3.org/1999/xlink"
  width="595.276pt" height="841.89pt" viewBox="0 0 595.276 841.89"
  fill-rule="evenodd">
<g>
<path style="stroke:none; fill:#ffffff" d="M 500 841.89L 0 841.89L 0 341.89L 500 341.89L 500 841.89z"/>
</g>
<g>
<g>
<g>
<path style="stroke:none; fill:#0056f0" d="M 69 595.39C 70.625 617.946 116.75 599.224 115 583.473C 114.895 580.277 109.545 570.927 91.7041 571.606C 73.8628 572.284 68 589.89 69 595.39z"/>
<path style="stroke:none; fill:#0056f0" d="M 154.064 567.443C 146.307 551.15 115.749 549.499 85.811 563.754C 85.5171 563.894 85.2319 564.042 84.9404 564.183L 88.3335 565.223C 88.3335 565.223 111.415 562.827 122 576.557C 122 576.557 126.334 565.556 120.334 555.89C 120.334 555.89 138.667 559.207 138.667 573.223C 138.667 583.348 132.958 588.723 132.958 588.723C 132.958 588.723 134.867 590.663 137.375 595.39C 139.656 599.69 140.233 604.015 140.319 604.764C 153.26 592.221 159.111 578.04 154.064 567.443z"/>
<path style="stroke:none; fill:#0056f0" d="M 80 614.89C 55.3335 613.557 55.3335 599.557 55.3335 599.557C 55.3335 599.557 51.667 590.654 74.3335 571.606L 73.7393 570.473C 51.2632 584.933 39.0049 605.107 45.6523 619.065C 53.4111 635.358 83.9683 637.01 113.906 622.755C 116.133 621.694 118.285 620.569 120.373 619.4C 122.003 613.07 122.289 612.211 122.562 607.765C 122.951 601.449 121.667 597.89 121.667 597.89C 121.667 597.89 104.666 616.223 80 614.89z"/>
</g>
<g>
<path style="stroke:none; fill:#0056f0" d="M 208.25 615.89L 204.594 608.671L 176.375 608.671L 172.719 615.89L 157.875 615.89L 180.5 573.233L 200.688 573.233L 223 615.89L 208.25 615.89zM 200.031 599.327L 191.812 583.171L 189.219 583.171L 181 599.327L 200.031 599.327z"/>
<path style="stroke:none; fill:#0056f0" d="M 216.219 573.233L 267.844 573.233L 267.844 584.108L 248.875 584.108L 248.875 615.89L 235.219 615.89L 235.219 584.108L 216.219 584.108L 216.219 573.233z"/>
<path style="stroke:none; fill:#0056f0" d="M 311.344 615.89L 307.688 608.671L 279.469 608.671L 275.812 615.89L 260.969 615.89L 283.594 573.233L 303.781 573.233L 326.094 615.89L 311.344 615.89zM 303.125 599.327L 294.906 583.171L 292.312 583.171L 284.094 599.327L 303.125 599.327z"/>
<path style="stroke:none; fill:#0056f0" d="M 353.281 591.702L 383 591.702C 383.041 592.64 383.062 593.244 383.062 593.515C 383.062 599.099 382.906 603.411 382.594 606.452C 382.094 611.369 379.302 614.349 374.219 615.39C 371.594 615.91 368.719 616.223 365.594 616.327C 362.281 616.452 358.353 616.515 353.812 616.515C 345.75 616.515 339.989 616.223 336.531 615.64C 331.739 614.849 328.771 612.64 327.625 609.015C 327.062 607.244 326.739 605.213 326.656 602.921C 326.552 600.046 326.5 596.983 326.5 593.733C 326.5 588.233 326.76 584.369 327.281 582.14C 328.031 579.036 329.322 576.848 331.156 575.577C 332.114 574.89 333.317 574.364 334.766 573.999C 336.213 573.635 338.26 573.338 340.906 573.108C 344.635 572.776 349.677 572.608 356.031 572.608C 364.197 572.608 369.978 572.932 373.375 573.577C 376.812 574.223 379.228 575.369 380.625 577.015C 381.853 578.494 382.603 580.827 382.875 584.015C 382.938 584.869 382.969 586.182 382.969 587.952L 369.969 587.952C 369.947 586.786 369.885 585.994 369.781 585.577C 369.489 584.515 368.562 583.879 367 583.671C 364.938 583.401 360.875 583.265 354.812 583.265C 349.416 583.265 345.677 583.442 343.594 583.796C 341.614 584.151 340.416 585.233 340 587.046C 339.666 588.421 339.5 590.869 339.5 594.39C 339.5 598.432 339.677 601.193 340.031 602.671C 340.489 604.65 341.906 605.755 344.281 605.983C 345.447 606.088 348.969 606.182 354.844 606.265C 361.26 606.224 365.396 606.099 367.25 605.89C 368.938 605.619 369.906 604.88 370.156 603.671C 370.302 602.921 370.375 601.775 370.375 600.233L 353.281 600.233L 353.281 591.702z"/>
<path style="stroke:none; fill:#0056f0" d="M 417 572.608C 425.958 572.608 432.166 572.838 435.625 573.296C 440.603 573.963 443.656 576.327 444.781 580.39C 445.552 583.182 445.938 587.911 445.938 594.577C 445.938 601.224 445.552 605.943 444.781 608.733C 443.656 612.796 440.603 615.161 435.625 615.827C 432.188 616.285 425.853 616.515 416.625 616.515C 407.416 616.515 401.083 616.285 397.625 615.827C 392.646 615.161 389.594 612.796 388.469 608.733C 387.697 605.943 387.312 601.224 387.312 594.577C 387.312 587.89 387.697 583.161 388.469 580.39C 389.594 576.327 392.646 573.963 397.625 573.296C 401.103 572.838 407.562 572.608 417 572.608zM 416.125 583.702C 409.603 583.702 405.646 583.879 404.25 584.233C 402.562 584.671 401.478 585.661 401 587.202C 400.541 588.723 400.312 591.525 400.312 595.608C 400.312 598.255 400.447 600.161 400.719 601.327C 401.239 603.494 402.812 604.733 405.438 605.046C 407.375 605.296 411.103 605.421 416.625 605.421C 422.146 605.421 425.875 605.296 427.812 605.046C 430.438 604.733 432 603.494 432.5 601.327C 432.791 600.14 432.938 598.296 432.938 595.796C 432.938 592.733 432.853 590.557 432.688 589.265C 432.396 587.119 431.728 585.692 430.688 584.983C 429.75 584.317 427.781 583.911 424.781 583.765C 423.697 583.723 420.812 583.702 416.125 583.702z"/>
</g>
<path style="stroke:none; fill:#0056f0" d="M 461.897 569.365C 463.938 569.365 465.93 569.889 467.875 570.936C 469.818 571.983 471.333 573.482 472.418 575.432C 473.503 577.381 474.046 579.414 474.046 581.53C 474.046 583.625 473.512 585.639 472.442 587.573C 471.374 589.506 469.875 591.008 467.947 592.076C 466.019 593.146 464.002 593.68 461.897 593.68C 459.791 593.68 457.774 593.146 455.846 592.076C 453.918 591.008 452.416 589.506 451.342 587.573C 450.268 585.639 449.73 583.625 449.73 581.53C 449.73 579.414 450.276 577.381 451.366 575.432C 452.457 573.482 453.974 571.983 455.918 570.936C 457.862 569.889 459.855 569.365 461.897 569.365zM 461.897 571.379C 460.189 571.379 458.526 571.817 456.909 572.693C 455.293 573.568 454.027 574.819 453.115 576.446C 452.201 578.074 451.745 579.769 451.745 581.53C 451.745 583.281 452.193 584.96 453.091 586.566C 453.987 588.172 455.242 589.423 456.853 590.32C 458.465 591.217 460.146 591.666 461.897 591.666C 463.647 591.666 465.328 591.217 466.94 590.32C 468.551 589.423 469.803 588.172 470.694 586.566C 471.586 584.96 472.031 583.281 472.031 581.53C 472.031 579.769 471.578 578.074 470.67 576.446C 469.763 574.819 468.497 573.568 466.875 572.693C 465.253 571.817 463.594 571.379 461.897 571.379zM 456.562 588.25L 456.562 575.166L 461.059 575.166C 462.595 575.166 463.706 575.286 464.395 575.528C 465.081 575.77 465.629 576.192 466.037 576.793C 466.445 577.395 466.65 578.034 466.65 578.711C 466.65 579.667 466.309 580.499 465.627 581.208C 464.944 581.917 464.039 582.315 462.912 582.401C 463.373 582.594 463.744 582.825 464.023 583.093C 464.55 583.609 465.194 584.474 465.957 585.688L 467.553 588.25L 464.975 588.25L 463.815 586.187C 462.9 584.565 462.165 583.55 461.606 583.142C 461.22 582.841 460.656 582.691 459.914 582.691L 458.674 582.691L 458.674 588.25L 456.562 588.25zM 458.674 580.886L 461.236 580.886C 462.461 580.886 463.296 580.703 463.741 580.338C 464.188 579.973 464.41 579.489 464.41 578.888C 464.41 578.501 464.303 578.154 464.088 577.849C 463.873 577.542 463.575 577.314 463.193 577.164C 462.812 577.013 462.105 576.938 461.074 576.938L 458.674 576.938L 458.674 580.886z"/>
</g>
</g>
</svg>