<svg width="30" height="30" viewBox="0 0 30 30" fill="none" xmlns="http://www.w3.org/2000/svg">
<path d="M2.5 3.75H5.625L8.125 21.25H21.25C22.6307 21.25 23.75 22.3693 23.75 23.75C23.75 25.1307 22.6307 26.25 21.25 26.25C19.8693 26.25 18.75 25.1307 18.75 23.75M11.25 6.25H26.2501L23.7501 13.75M22.5 17.5H7.58926M13.75 23.75C13.75 25.1307 12.6307 26.25 11.25 26.25C9.86929 26.25 8.75 25.1307 8.75 23.75C8.75 22.3693 9.86929 21.25 11.25 21.25C12.6307 21.25 13.75 22.3693 13.75 23.75Z" stroke="#33363F" strokeWidth="1.5" strokeLinecap="round" strokeLinejoin="round"/>
</svg>
