<svg width="15" height="15" viewBox="0 0 15 15" fill="none" xmlns="http://www.w3.org/2000/svg">
<path d="M13.1247 11.9915V10.2979C13.1315 10.0211 13.0362 9.75132 12.8568 9.54003C12.351 8.94415 10.6159 8.56298 9.92821 8.70937C9.39209 8.82348 9.01702 9.36177 8.65033 9.72774C7.23419 8.92409 6.06164 7.75387 5.2564 6.34053C5.6231 5.97456 6.16245 5.60023 6.27679 5.06517C6.42324 4.37986 6.04261 2.65593 5.45085 2.14803C5.24271 1.96938 4.97658 1.87236 4.70206 1.87505H3.0051C2.35852 1.87566 1.82058 2.45559 1.87945 3.10574C1.87503 8.70937 6.25003 13.125 11.8915 13.1206C12.5452 13.1795 13.1273 12.6389 13.1247 11.9915Z" stroke="#33363F" stroke-width="1.5" stroke-linecap="round" stroke-linejoin="round"/>
</svg>
