<svg width="150" height="150" viewBox="0 0 150 150" fill="none" xmlns="http://www.w3.org/2000/svg">
<g clip-path="url(#clip0_373_37)">
<path d="M89.1457 33.5534L80.8594 25.2671L63.2812 42.8452L57.4219 36.9858L49.1355 45.2722L63.2812 59.4179L89.1457 33.5534ZM69.1406 82.0312C91.7566 82.0312 110.156 63.6316 110.156 41.0156C110.156 18.3996 91.7569 0 69.1406 0C46.5243 0 28.125 18.3996 28.125 41.0156C28.125 63.6316 46.5246 82.0312 69.1406 82.0312ZM69.1406 11.7188C85.2949 11.7188 98.4375 24.8613 98.4375 41.0156C98.4375 57.1699 85.2949 70.3125 69.1406 70.3125C52.9863 70.3125 39.8438 57.1699 39.8438 41.0156C39.8438 24.8613 52.9863 11.7188 69.1406 11.7188ZM145.857 89.4565C140.324 83.9232 132.895 80.8758 125.07 80.8758C117.244 80.8758 109.887 83.9232 104.354 89.4565L92.4281 101.382C89.5878 95.4853 83.5515 91.4062 76.5803 91.4062H49.5521C41.7267 91.4062 34.3696 94.4537 28.836 99.9873C26.4899 102.333 24.8739 103.125 22.4323 103.125H0V150H81.3935C89.2187 150 96.576 146.953 102.109 141.419L150 93.5997L145.857 89.4565ZM93.8229 133.133C90.503 136.453 86.0886 138.281 81.3935 138.281H11.7188V114.844H22.432C29.6288 114.844 34.0632 111.333 37.1221 108.274C40.4423 104.953 44.8564 103.125 49.5519 103.125H76.58C79.8108 103.125 82.4394 105.754 82.4394 108.984C82.4394 112.215 79.8108 114.844 76.58 114.844H57.4219V126.562H76.5803C81.7336 126.562 86.3763 124.333 89.5942 120.789L112.64 97.7429C118.042 92.3411 126.113 91.1962 132.646 94.3096L93.8229 133.133Z" fill="url(#paint0_linear_373_37)"/>
</g>
<defs>
<linearGradient id="paint0_linear_373_37" x1="75" y1="150" x2="75" y2="0" gradientUnits="userSpaceOnUse">
<stop stop-color="#DDE3E9"/>
<stop offset="0.39429" stop-color="#33363F"/>
</linearGradient>
<clipPath id="clip0_373_37">
<rect width="150" height="150" fill="white"/>
</clipPath>
</defs>
</svg>
