<svg width="20" height="20" viewBox="0 0 20 20" fill="none" xmlns="http://www.w3.org/2000/svg">
<g clip-path="url(#clip0_6_7)">
<path d="M9.99999 0.799988C4.92343 0.799988 0.799988 4.92343 0.799988 9.99999C0.799988 11.6312 1.24686 13.1547 1.99374 14.4828L0.815613 18.6922C0.77655 18.8297 0.81405 18.9766 0.912488 19.0781C1.01249 19.1812 1.1578 19.2219 1.29686 19.1875L5.68436 18.1C6.97343 18.7891 8.43749 19.2 9.99999 19.2C15.0766 19.2 19.2 15.0766 19.2 9.99999C19.2 4.92343 15.0766 0.799988 9.99999 0.799988ZM9.99999 1.59999C14.6437 1.59999 18.4 5.35624 18.4 9.99999C18.4 14.6437 14.6437 18.4 9.99999 18.4C8.51093 18.4 7.11718 18.0125 5.90468 17.3328C5.81561 17.2844 5.71249 17.2703 5.61249 17.2937L1.7703 18.2469L2.79999 14.5703C2.83124 14.4656 2.81561 14.3531 2.76093 14.2578C2.02499 13.0094 1.59999 11.5562 1.59999 9.99999C1.59999 5.35624 5.35624 1.59999 9.99999 1.59999ZM6.6578 5.19999C6.39999 5.19999 6.03436 5.2953 5.73436 5.6203C5.55311 5.81405 4.79999 6.54843 4.79999 7.83749C4.79999 9.1828 5.7328 10.3422 5.8453 10.4922H5.84686C5.83593 10.4781 5.98905 10.7016 6.1953 10.9687C6.39999 11.2344 6.68749 11.5859 7.04843 11.9656C7.76874 12.725 8.7828 13.6031 10.0422 14.1406C10.6219 14.3859 11.0797 14.5359 11.4266 14.6453C12.0672 14.8469 12.6531 14.8156 13.0922 14.7516C13.4203 14.7031 13.7828 14.5437 14.1406 14.3172C14.4984 14.0922 14.85 13.8094 15.0047 13.3828C15.114 13.075 15.1703 12.7922 15.1922 12.5594C15.2016 12.4422 15.2031 12.3391 15.1953 12.2437C15.1875 12.1484 15.1953 12.075 15.1078 11.9297C14.9203 11.6234 14.7094 11.6156 14.4906 11.5078C14.3672 11.4469 14.0187 11.2766 13.6703 11.1109C13.3219 10.9437 13.0203 10.7969 12.8344 10.7312C12.7156 10.6875 12.5719 10.6266 12.3656 10.6516C12.1594 10.675 11.9547 10.8234 11.8359 11C11.7219 11.1672 11.2687 11.7031 11.1297 11.8609C11.1281 11.8594 11.1406 11.8656 11.0859 11.8391C10.9141 11.7531 10.7047 11.6812 10.3953 11.5172C10.0844 11.3547 9.69686 11.1125 9.27343 10.7391V10.7375C8.64061 10.1828 8.19843 9.48436 8.05936 9.24999C8.06874 9.23905 8.0578 9.25311 8.07811 9.2328L8.07968 9.23124C8.22186 9.09218 8.34843 8.92343 8.45468 8.79999C8.60624 8.62655 8.67343 8.47186 8.7453 8.32811C8.88905 8.04218 8.80936 7.72811 8.72655 7.56093C8.73124 7.57186 8.68124 7.45936 8.62655 7.32968C8.5703 7.19999 8.49999 7.03124 8.42655 6.85155C8.27655 6.49374 8.10936 6.09061 8.00936 5.85311C7.89218 5.57499 7.73436 5.37499 7.52655 5.27811C7.31874 5.18124 7.13593 5.20936 7.12968 5.2078H7.12811C6.97968 5.20155 6.81874 5.19999 6.6578 5.19999ZM6.6578 5.99999C6.81093 5.99999 6.96405 6.00155 7.09061 6.0078C7.22186 6.01405 7.21405 6.01561 7.18905 6.00311C7.16249 5.99061 7.19686 5.98749 7.27186 6.16405C7.36874 6.3953 7.53749 6.79999 7.68749 7.16093C7.76249 7.34061 7.8328 7.50936 7.88905 7.64218C7.9453 7.77499 7.97499 7.84843 8.01093 7.9203L8.01249 7.92186C8.04686 7.98905 8.04374 7.9453 8.03124 7.9703C7.94686 8.13749 7.93593 8.17811 7.84999 8.27655C7.7203 8.42655 7.58749 8.59374 7.51718 8.66249C7.45624 8.72343 7.3453 8.81718 7.27655 9.00155C7.20624 9.18436 7.23905 9.43749 7.34999 9.62655C7.49843 9.87811 7.98593 10.6719 8.74374 11.3391C9.22186 11.7594 9.66561 12.0391 10.0203 12.2266C10.3766 12.4125 10.6656 12.5219 10.7297 12.5547C10.8844 12.6312 11.0515 12.6906 11.2469 12.6672C11.4437 12.6422 11.6109 12.525 11.7187 12.4031C11.8625 12.2406 12.2859 11.7562 12.4891 11.4578C12.4984 11.4609 12.4953 11.4578 12.5625 11.4828V11.4844H12.5641C12.5953 11.4953 12.9812 11.6672 13.3266 11.8328C13.6719 11.9969 14.0219 12.1672 14.1344 12.2234C14.3 12.3047 14.3765 12.3578 14.3969 12.3578C14.3984 12.3937 14.4 12.4312 14.3937 12.4891C14.3812 12.65 14.3375 12.8719 14.2516 13.1109C14.2094 13.2266 13.9906 13.4672 13.7125 13.6422C13.4359 13.8172 13.1 13.9406 12.975 13.9594C12.6 14.0141 12.1547 14.0344 11.6656 13.8812C11.3266 13.775 10.9031 13.6375 10.3562 13.4047C9.2453 12.9297 8.30155 12.125 7.62811 11.4156C7.29061 11.0594 7.0203 10.7297 6.82811 10.4797C6.63749 10.2297 6.55311 10.1 6.4828 10.0094V10.0078C6.35936 9.84374 5.59999 8.78905 5.59999 7.83749C5.59999 6.83124 6.06718 6.43593 6.3203 6.16405C6.45311 6.0203 6.59843 5.99999 6.65624 5.99999H6.6578Z" fill="#898888"/>
</g>
<defs>
<clipPath id="clip0_6_7">
<rect width="20" height="20" fill="white"/>
</clipPath>
</defs>
</svg>
