<svg width="60" height="60" viewBox="0 0 60 60" fill="none" xmlns="http://www.w3.org/2000/svg">
<path d="M53.5714 43.1362V34.2674C53.5714 33.1313 53.1199 32.0418 52.3162 31.2385C51.5124 30.4352 50.4223 29.984 49.2857 29.984H32.1429V21.4171H36.4286C37.5649 21.416 38.6543 20.9643 39.4578 20.1613C40.2613 19.3582 40.7131 18.2694 40.7143 17.1337V4.28342C40.7131 3.14774 40.2613 2.05889 39.4578 1.25584C38.6543 0.452786 37.5649 0.00113399 36.4286 0H23.5714C22.4351 0.00113399 21.3457 0.452786 20.5422 1.25584C19.7387 2.05889 19.2869 3.14774 19.2857 4.28342V17.1337C19.2869 18.2694 19.7387 19.3582 20.5422 20.1613C21.3457 20.9643 22.4351 21.416 23.5714 21.4171H27.8571V29.984H10.7143C9.57766 29.984 8.48757 30.4352 7.68384 31.2385C6.88012 32.0418 6.42859 33.1313 6.42859 34.2674V43.1383C4.40861 43.6596 2.64818 44.8993 1.4773 46.6251C0.306419 48.3508 -0.194536 50.4441 0.0683377 52.5126C0.331211 54.5811 1.33987 56.4828 2.90523 57.8612C4.4706 59.2395 6.48522 60 8.57144 60C10.6577 60 12.6723 59.2395 14.2377 57.8612C15.803 56.4828 16.8117 54.5811 17.0745 52.5126C17.3374 50.4441 16.8365 48.3508 15.6656 46.6251C14.4947 44.8993 12.7343 43.6596 10.7143 43.1383V34.2674H27.8571V43.1383C25.8372 43.6596 24.0767 44.8993 22.9059 46.6251C21.735 48.3508 21.234 50.4441 21.4969 52.5126C21.7598 54.5811 22.7684 56.4828 24.3338 57.8612C25.8992 59.2395 27.9138 60 30 60C32.0862 60 34.1008 59.2395 35.6662 57.8612C37.2316 56.4828 38.2402 54.5811 38.5031 52.5126C38.766 50.4441 38.265 48.3508 37.0941 46.6251C35.9233 44.8993 34.1628 43.6596 32.1429 43.1383V34.2674H49.2857V43.1362C47.2657 43.6575 45.5053 44.8972 44.3344 46.6229C43.1635 48.3487 42.6626 50.442 42.9255 52.5105C43.1883 54.579 44.197 56.4806 45.7623 57.859C47.3277 59.2374 49.3423 59.9979 51.4286 59.9979C53.5148 59.9979 55.5294 59.2374 57.0948 57.859C58.6601 56.4806 59.6688 54.579 59.9317 52.5105C60.1945 50.442 59.6936 48.3487 58.5227 46.6229C57.3518 44.8972 55.5914 43.6575 53.5714 43.1362ZM23.5714 4.28342H36.4286L36.4307 17.1337H23.5714V4.28342ZM12.8572 51.4011C12.8572 52.2482 12.6058 53.0764 12.1349 53.7808C11.664 54.4852 10.9946 55.0342 10.2115 55.3584C9.4284 55.6826 8.56669 55.7675 7.73534 55.6022C6.904 55.4369 6.14035 55.0289 5.54099 54.4299C4.94162 53.8309 4.53345 53.0676 4.36808 52.2367C4.20271 51.4058 4.28759 50.5446 4.61196 49.7619C4.93634 48.9792 5.48565 48.3102 6.19043 47.8395C6.89521 47.3689 7.72381 47.1176 8.57144 47.1176C9.70774 47.1188 10.7972 47.5704 11.6006 48.3735C12.4041 49.1765 12.856 50.2654 12.8572 51.4011ZM34.2857 51.4011C34.2857 52.2482 34.0344 53.0764 33.5634 53.7808C33.0925 54.4852 32.4232 55.0342 31.6401 55.3584C30.857 55.6826 29.9952 55.7675 29.1639 55.6022C28.3326 55.4369 27.5689 55.0289 26.9695 54.4299C26.3702 53.8309 25.962 53.0676 25.7966 52.2367C25.6313 51.4058 25.7161 50.5446 26.0405 49.7619C26.3649 48.9792 26.9142 48.3102 27.619 47.8395C28.3238 47.3689 29.1524 47.1176 30 47.1176C31.1361 47.1193 32.2252 47.5712 33.0286 48.3741C33.8319 49.177 34.284 50.2656 34.2857 51.4011ZM51.4286 55.6845C50.5809 55.6845 49.7523 55.4333 49.0475 54.9626C48.3428 54.4919 47.7934 53.823 47.4691 53.0403C47.1447 52.2576 47.0598 51.3963 47.2252 50.5654C47.3906 49.7345 47.7987 48.9713 48.3981 48.3722C48.9975 47.7732 49.7611 47.3652 50.5925 47.1999C51.4238 47.0347 52.2855 47.1195 53.0686 47.4437C53.8517 47.7679 54.5211 48.3169 54.992 49.0213C55.4629 49.7257 55.7143 50.5539 55.7143 51.4011C55.7131 52.5367 55.2612 53.6256 54.4578 54.4286C53.6543 55.2317 52.5648 55.6834 51.4286 55.6845Z" fill="#333333"/>
</svg>
