<svg width="60" height="60" viewBox="0 0 60 60" fill="none" xmlns="http://www.w3.org/2000/svg">
<path d="M42.825 51.75L53.25 41.4L50.1 38.25L42.825 45.375L39.9 42.45L36.75 45.675L42.825 51.75ZM9 18H45V12H9V18ZM45 60C40.85 60 37.312 58.537 34.386 55.611C31.46 52.685 29.998 49.148 30 45C30 40.85 31.463 37.312 34.389 34.386C37.315 31.46 40.852 29.998 45 30C49.15 30 52.688 31.463 55.614 34.389C58.54 37.315 60.002 40.852 60 45C60 49.15 58.537 52.688 55.611 55.614C52.685 58.54 49.148 60.002 45 60ZM0 57V6C0 4.35 0.588 2.937 1.764 1.761C2.94 0.585005 4.352 -0.00199491 6 5.09338e-06H48C49.65 5.09338e-06 51.063 0.588005 52.239 1.76401C53.415 2.94 54.002 4.352 54 6V26.025C52.6 25.325 51.137 24.812 49.611 24.486C48.085 24.16 46.548 23.998 45 24H9V30H30.3C29.45 30.85 28.663 31.775 27.939 32.775C27.215 33.775 26.577 34.85 26.025 36H9V42H24.225C24.125 42.5 24.062 42.988 24.036 43.464C24.01 43.94 23.998 44.452 24 45C24 47.1 24.288 49.113 24.864 51.039C25.44 52.965 26.302 54.802 27.45 56.55L27 57L22.5 52.5L18 57L13.5 52.5L9 57L4.5 52.5L0 57Z" fill="#333333"/>
</svg>
