<svg width="60" height="60" viewBox="0 0 60 60" fill="none" xmlns="http://www.w3.org/2000/svg">
<path d="M39.375 0L60 10.3988V33.5894L56.25 31.6987V14.6233L41.25 22.1861V29.808L37.5 31.6987V22.1861L22.5 14.6233V21.3294L18.75 19.4387V10.3988L39.375 0ZM39.375 18.9069L44.5605 16.2777L30.9961 8.44904L24.8145 11.5805L39.375 18.9069ZM48.6035 14.2688L53.9355 11.5805L39.375 4.22452L35.0098 6.44018L48.6035 14.2688ZM33.75 33.5894L30 35.4801V35.4505L18.75 41.1226V54.5643L30 48.8626V53.1167L16.875 59.7341L0 51.1965V31.226L16.875 22.7179L33.75 31.226V33.5894ZM15 54.5643V41.1226L3.75 35.4505V48.8626L15 54.5643ZM16.875 37.8434L27.6855 32.4077L16.875 26.9424L6.06445 32.4077L16.875 37.8434ZM33.75 37.8139L46.875 31.1965L60 37.8139V53.3826L46.875 60L33.75 53.3826V37.8139ZM45 54.8301V45.8198L37.5 42.0384V51.0487L45 54.8301ZM56.25 51.0487V42.0384L48.75 45.8198V54.8301L56.25 51.0487ZM46.875 42.5406L53.9355 38.966L46.875 35.421L39.8145 38.966L46.875 42.5406Z" fill="#333333"/>
</svg>
