<svg width="60" height="50" viewBox="0 0 60 50" fill="none" xmlns="http://www.w3.org/2000/svg">
<path d="M9 21.4286C12.3094 21.4286 15 18.2254 15 14.2857C15 10.346 12.3094 7.14286 9 7.14286C5.69063 7.14286 3 10.346 3 14.2857C3 18.2254 5.69063 21.4286 9 21.4286ZM51 21.4286C54.3094 21.4286 57 18.2254 57 14.2857C57 10.346 54.3094 7.14286 51 7.14286C47.6906 7.14286 45 10.346 45 14.2857C45 18.2254 47.6906 21.4286 51 21.4286ZM54 25H48C46.35 25 44.8594 25.7924 43.7719 27.0759C47.55 29.5424 50.2313 33.9955 50.8125 39.2857H57C58.6594 39.2857 60 37.6897 60 35.7143V32.1429C60 28.2031 57.3094 25 54 25ZM30 25C35.8031 25 40.5 19.4085 40.5 12.5C40.5 5.59152 35.8031 0 30 0C24.1969 0 19.5 5.59152 19.5 12.5C19.5 19.4085 24.1969 25 30 25ZM37.2 28.5714H36.4219C34.4719 29.6875 32.3063 30.3571 30 30.3571C27.6937 30.3571 25.5375 29.6875 23.5781 28.5714H22.8C16.8375 28.5714 12 34.3304 12 41.4286V44.6429C12 47.6004 14.0156 50 16.5 50H43.5C45.9844 50 48 47.6004 48 44.6429V41.4286C48 34.3304 43.1625 28.5714 37.2 28.5714ZM16.2281 27.0759C15.1406 25.7924 13.65 25 12 25H6C2.69063 25 0 28.2031 0 32.1429V35.7143C0 37.6897 1.34062 39.2857 3 39.2857H9.17813C9.76875 33.9955 12.45 29.5424 16.2281 27.0759Z" fill="#333333"/>
</svg>
