<?xml version="1.0" encoding="UTF-8"?>
<!-- Generator: Adobe Illustrator 23.0.1, SVG Export Plug-In . SVG Version: 6.00 Build 0)  -->
<svg xmlns="http://www.w3.org/2000/svg" xmlns:xlink="http://www.w3.org/1999/xlink" version="1.1" id="Ebene_1" x="0px" y="0px" viewBox="0 0 140 55" style="enable-background:new 0 0 140 55;" xml:space="preserve">
<style type="text/css">
	.st0{fill:#F9DC00;}
	.st1{fill:#0091DC;}
	.st2{fill:none;}
</style>
<polygon class="st0" points="0,38.76 0,43.22 138.04,43.22 140,38.76 "></polygon>
<g>
	<path class="st1" d="M16.69,19.04c0,1.24-0.25,2.36-0.74,3.22c-0.49,0.87-1.1,1.61-1.96,2.11c-0.86,0.5-1.72,0.87-2.82,1.24   c-1.1,0.25-2.21,0.37-3.31,0.37H5.28v8.31H0V12.22h8.1c1.23,0,2.33,0.12,3.31,0.37c1.1,0.25,1.96,0.62,2.7,1.12   c0.74,0.5,1.35,1.24,1.84,2.11S16.69,17.8,16.69,19.04 M11.29,19.04c0-0.5-0.12-0.99-0.37-1.24c-0.25-0.37-0.49-0.62-0.86-0.74   s-0.74-0.25-1.23-0.37c-0.49-0.12-0.86-0.12-1.35-0.12H5.28v5.21h2.21c0.49,0,0.98,0,1.47-0.12c0.49-0.12,0.86-0.25,1.23-0.5   c0.37-0.25,0.61-0.5,0.86-0.87C11.29,20.03,11.29,19.54,11.29,19.04"></path>
</g>
<polygon class="st1" points="23.68,16.81 23.68,21.4 32.15,21.4 30.31,25.74 23.68,25.74 23.68,34.42 18.4,34.42 18.4,12.22   32.88,12.22 32.88,16.81 "></polygon>
<polygon class="st1" points="34.6,34.42 34.6,12.22 49.45,12.22 49.45,16.69 39.75,16.69 39.75,20.9 48.83,20.9 46.99,25.24   39.75,25.24 39.75,29.83 49.94,29.83 49.94,34.42 "></polygon>
<g>
	<path class="st1" d="M69.94,29.71c-0.49,1.12-1.1,1.98-1.84,2.85c-0.86,0.74-1.84,1.36-2.94,1.86c-1.1,0.5-2.45,0.62-3.93,0.62   c-1.47,0-2.7-0.25-3.93-0.62c-1.23-0.5-2.21-0.99-2.94-1.86c-0.86-0.74-1.47-1.74-1.84-2.85c-0.49-1.12-0.61-2.36-0.61-3.6V12.22   h5.28v13.39c0,0.62,0.12,1.24,0.25,1.74c0.12,0.5,0.37,0.99,0.74,1.49c0.37,0.5,0.74,0.74,1.23,0.99c0.49,0.25,1.23,0.37,1.84,0.37   c0.74,0,1.35-0.12,1.84-0.37c0.49-0.25,0.98-0.62,1.23-0.99c0.37-0.5,0.61-0.87,0.74-1.49c0.12-0.62,0.25-1.12,0.25-1.74V12.22   h5.28v13.76C70.55,27.35,70.31,28.59,69.94,29.71"></path>
</g>
<polygon class="st1" points="77.55,16.81 77.55,21.4 86.13,21.4 84.17,25.74 77.55,25.74 77.55,34.42 72.39,34.42 72.39,12.22   86.75,12.22 86.75,16.81 "></polygon>
<polygon class="st1" points="93.87,16.81 93.87,21.4 102.33,21.4 100.49,25.74 93.87,25.74 93.87,34.42 88.59,34.42 88.59,12.22   103.07,12.22 103.07,16.81 "></polygon>
<polygon class="st1" points="104.79,34.42 104.79,12.22 119.51,12.22 119.51,16.69 109.94,16.69 109.94,20.9 119.02,20.9   117.18,25.24 109.94,25.24 109.94,29.83 120.12,29.83 120.12,34.42 "></polygon>
<g>
	<path class="st1" d="M133.62,34.42l-4.79-8.8h-1.84v8.8h-5.15v-22.2h8.34c1.1,0,2.09,0.12,3.07,0.37c0.98,0.25,1.84,0.62,2.7,1.12   s1.47,1.24,1.84,2.11c0.49,0.87,0.74,1.86,0.74,3.22c0,1.49-0.37,2.73-1.23,3.84c-0.86,0.99-1.96,1.74-3.31,2.23l5.77,9.42h-6.13   V34.42z M133.37,19.04c0-0.5-0.12-0.99-0.37-1.24c-0.25-0.37-0.49-0.62-0.86-0.74s-0.74-0.25-1.23-0.37s-0.86-0.12-1.23-0.12h-2.82   v5.21h2.58c0.49,0,0.86,0,1.35-0.12s0.86-0.25,1.23-0.37c0.37-0.12,0.74-0.5,0.86-0.87C133.37,20.03,133.37,19.54,133.37,19.04"></path>
</g>
<rect class="st2" width="140" height="55"></rect>
</svg>
