<svg width="150" height="150" viewBox="0 0 150 150" fill="none" xmlns="http://www.w3.org/2000/svg">
<path fill-rule="evenodd" clip-rule="evenodd" d="M41.9528 12.6647H55.5817C55.5817 7.22959 60.0284 2.7832 65.4633 2.7832C70.8976 2.7832 75.3445 7.22988 75.3445 12.6647H88.9734C89.6188 12.6647 90.1453 13.1912 90.1453 13.8363V26.1782C90.1446 26.4888 90.0209 26.7864 89.8013 27.006C89.5817 27.2256 89.284 27.3492 88.9734 27.3498H41.9528C41.6424 27.3491 41.3448 27.2254 41.1253 27.0059C40.9058 26.7863 40.7822 26.4887 40.7815 26.1782V13.8366C40.7815 13.1912 41.308 12.6647 41.9528 12.6647ZM106.82 125.189H100.735V131.274L106.82 125.189ZM110.341 25.0863H95.1252V26.1785C95.1252 29.5726 92.3672 32.3306 88.9728 32.3306H41.9528C38.5591 32.3306 35.8011 29.5726 35.8011 26.1785V25.0863H20.5843V134.796H95.7548V122.699C95.7548 121.324 96.8701 120.209 98.245 120.209H108.757L100.508 111.96C94.7376 115.022 88.1561 116.757 81.1693 116.757C74.6388 116.757 68.4618 115.241 62.971 112.542H33.0331C31.6588 112.542 30.5429 111.427 30.5429 110.052C30.5429 108.676 31.6588 107.561 33.0331 107.561H55.1842C51.9053 104.905 49.0502 101.765 46.7174 98.2491H33.0331C31.6588 98.2491 30.5429 97.1341 30.5429 95.7589C30.5429 94.3837 31.6588 93.2686 33.0331 93.2686H43.8902C42.4689 90.3023 41.4097 87.1758 40.7356 83.9563H33.0331C31.6588 83.9563 30.5429 82.8413 30.5429 81.4661C30.5429 80.0909 31.6588 78.9759 33.0331 78.9759H40.0061C39.744 75.872 39.8288 72.7486 40.2589 69.6636H33.0331C32.3727 69.6634 31.7394 69.401 31.2724 68.934C30.8054 68.467 30.543 67.8337 30.5429 67.1733C30.5429 65.7984 31.6588 64.6831 33.0331 64.6831H41.2734C42.148 61.4361 43.4179 58.3087 45.0545 55.3711H33.0331C32.3727 55.3709 31.7395 55.1084 31.2725 54.6415C30.8055 54.1745 30.5431 53.5412 30.5429 52.8809C30.5429 51.5057 31.6588 50.3906 33.0331 50.3906H48.3202C51.0916 46.7628 54.442 43.6165 58.2366 41.0783H33.0334C31.6591 41.0783 30.5432 39.9633 30.5432 38.5881C30.5432 37.2129 31.6591 36.0978 33.0334 36.0978H68.5456C72.5247 34.822 76.7672 34.1329 81.1693 34.1329C85.5727 34.1329 89.8148 34.822 93.7945 36.0978H97.8914C98.2411 36.0978 98.5868 36.1713 98.9062 36.3137C99.2256 36.4561 99.5113 36.6642 99.745 36.9243C99.9786 37.1845 100.155 37.491 100.262 37.8238C100.369 38.1566 100.405 38.5082 100.368 38.8559C104.041 40.7889 107.403 43.2626 110.341 46.1941V25.0863ZM85.5237 121.854C86.1842 121.854 86.8176 122.117 87.2846 122.584C87.7516 123.051 88.014 123.684 88.014 124.344C88.014 125.005 87.7516 125.638 87.2846 126.105C86.8176 126.572 86.1842 126.835 85.5237 126.835H33.0331C31.6588 126.835 30.5429 125.72 30.5429 124.344C30.5429 122.969 31.6588 121.854 33.0331 121.854H85.5237ZM95.1255 20.1059V13.8366C95.1255 13.4361 95.0865 13.0444 95.0133 12.665H116.668C120.025 12.665 122.763 15.4028 122.763 18.7597V99.8607L117.685 94.7824C120.746 89.013 122.481 82.4311 122.481 75.4444C122.481 66.8229 119.84 58.8182 115.322 52.195V22.5961C115.322 21.9356 115.06 21.3022 114.592 20.8352C114.125 20.3682 113.492 20.1059 112.832 20.1059H95.1255ZM98.245 139.776H18.094C17.4336 139.776 16.8003 139.514 16.3333 139.047C15.8663 138.58 15.6039 137.946 15.6038 137.286V22.5961C15.6038 21.9356 15.8662 21.3022 16.3332 20.8352C16.8002 20.3682 17.4336 20.1059 18.094 20.1059H35.8008V13.8366C35.8008 13.4361 35.8392 13.0444 35.9124 12.665H14.2576C10.9005 12.665 8.16299 15.4028 8.16299 18.7597V141.122C8.16299 144.479 10.9002 147.217 14.2576 147.217H116.668C120.025 147.217 122.763 144.479 122.763 141.122V134.215L113.8 125.252L100.02 139.032C99.7886 139.268 99.5123 139.455 99.2075 139.583C98.9027 139.711 98.5755 139.776 98.245 139.776ZM91.7317 63.9448C93.0381 62.6391 95.1554 62.6391 96.4611 63.9448C97.7795 65.2632 97.7525 67.3825 96.4611 68.6742C90.3706 74.7642 84.2813 80.8544 78.1904 86.9443C76.7118 88.4235 74.3367 88.1408 73.0813 86.4908C70.6626 83.3109 68.1094 80.2345 65.6238 77.1064C64.4771 75.6633 64.7162 73.5636 66.1594 72.4163C67.6025 71.269 69.7025 71.5087 70.8498 72.9518L76.1077 79.5688L91.7317 63.9448ZM81.1693 39.1131C101.236 39.1131 117.501 55.379 117.501 75.4444C117.501 95.8148 100.922 111.776 81.1693 111.776C61.4221 111.776 44.838 95.8049 44.838 75.4444C44.8377 55.6767 60.8221 39.1131 81.1693 39.1131ZM81.1693 48.201C96.0891 48.201 108.413 60.2719 108.413 75.4444C108.413 90.4904 96.2156 102.688 81.1693 102.688C66.1652 102.688 53.9268 90.5241 53.9268 75.4444C53.9268 60.2804 66.2549 48.201 81.1693 48.201ZM117.666 101.807L120.683 104.824L110.55 114.958L107.532 111.941L109.734 109.738L107.375 107.38C109.467 105.661 111.386 103.742 113.105 101.65L115.464 104.009L117.666 101.807ZM114.071 118.479L124.205 108.346L139.747 123.888C142.534 126.675 142.534 131.235 139.747 134.022C136.961 136.809 132.4 136.809 129.613 134.022L114.071 118.479Z" fill="url(#paint0_linear_371_45)"/>
<defs>
<linearGradient id="paint0_linear_371_45" x1="6.80508" y1="142.282" x2="127.804" y2="21.283" gradientUnits="userSpaceOnUse">
<stop stop-color="#DDE3E9"/>
<stop offset="0.490741" stop-color="#33363F"/>
</linearGradient>
</defs>
</svg>
